<?xml version="1.0" encoding="UTF-8"?>
<!DOCTYPE svg PUBLIC "-//W3C//DTD SVG 1.1//EN" "http://www.w3.org/Graphics/SVG/1.1/DTD/svg11.dtd">
<!-- Creator: CorelDRAW 2020 (64-Bit) -->
<svg xmlns="http://www.w3.org/2000/svg" xml:space="preserve" width="154.562mm" height="37.9047mm" version="1.1" style="shape-rendering:geometricPrecision; text-rendering:geometricPrecision; image-rendering:optimizeQuality; fill-rule:evenodd; clip-rule:evenodd"
viewBox="0 0 15270.36 3744.9"
 xmlns:xlink="http://www.w3.org/1999/xlink"
 xmlns:xodm="http://www.corel.com/coreldraw/odm/2003">
 <defs>
  <style type="text/css">
   <![CDATA[
    .str0 {stroke:#FEFEFE;stroke-width:278.83;stroke-miterlimit:22.9256}
    .fil5 {fill:none}
    .fil6 {fill:#FEFEFE}
    .fil1 {fill:#14A23C}
    .fil3 {fill:#F16736}
    .fil0 {fill:#FF6600}
    .fil2 {fill:#FEFEFE;fill-rule:nonzero}
    .fil7 {fill:white;fill-rule:nonzero}
    .fil4 {fill:url(#id1)}
   ]]>
  </style>
     <clipPath id="id0">
      <path d="M7478.68 141.85c-178.11,19.69 -421.79,230.56 -567.83,329.11l-795.53 555.15c-189.81,137.92 -395.8,225.97 -445.16,450.19 -33.04,150.03 15.6,249.83 58.78,376.72 152.33,447.6 309.83,893.64 454.96,1343.33 80.46,249.3 183.17,406.48 491.39,406.06 150.99,-0.2 1692.03,9.15 1796.92,-3.81 295.99,-36.57 354.23,-282.13 421.92,-481.11 152.29,-447.67 309.55,-895.1 454.53,-1343.75 94.19,-291.49 31.82,-432.63 -204.42,-602.5l-532.44 -370.81c-166.48,-109.78 -360.33,-257.77 -527.1,-367.99 -216.69,-143.22 -379.29,-315.66 -606.03,-290.59z"/>
     </clipPath>
  <radialGradient id="id1" gradientUnits="userSpaceOnUse" gradientTransform="matrix(0.993609 -0 -0 1 48 0)" cx="7524.98" cy="2017.44" r="10909.19" fx="7524.98" fy="2017.44">
   <stop offset="0" style="stop-opacity:1; stop-color:#FAC722"/>
   <stop offset="0.611765" style="stop-opacity:1; stop-color:#F9AE1B"/>
   <stop offset="1" style="stop-opacity:1; stop-color:#F99515"/>
  </radialGradient>
 </defs>
 <g id="Слой_x0020_1">
  <metadata id="CorelCorpID_0Corel-Layer"/>
  <g id="_1980126355888">
   <path class="fil0" d="M4.8 994.59l0 1086.96c0,163.21 149.92,303.71 343.68,303.71l14578.2 0c197.06,0 343.68,-140.94 343.68,-303.71l0 -1094.96c0,-82.91 -44.12,-153.14 -97.73,-205.98 -49.63,-48.94 -126.04,-89.74 -221.97,-89.74l-14626.16 0c-167.22,0 -319.7,140.4 -319.7,303.71z"/>
   <path class="fil1" d="M-0 2688.98l0 335.68c0,147.45 148.28,295.72 295.72,295.72l14674.12 0c147.45,0 295.72,-148.28 295.72,-295.72l0 -335.68c0,-129.05 -101.63,-244.9 -219.3,-284.22 -38.46,-12.85 -100.1,-19.49 -148.35,-19.49l-14530.25 0c-201.04,0 -367.66,118.49 -367.66,303.71z"/>
   <g>
    <path class="fil2" d="M820.49 3081.79c-46.92,0 -89.22,-10.2 -126.94,-30.58 -37.71,-20.39 -67.3,-48.67 -88.79,-84.84 -21.48,-36.18 -32.23,-76.63 -32.23,-121.34 0,-44.73 10.75,-85.17 32.23,-121.34 21.49,-36.17 51.08,-64.46 88.79,-84.84 37.71,-20.39 80.02,-30.59 126.94,-30.59 46.91,0 89.22,10.2 126.93,30.59 37.71,20.38 67.3,48.55 88.79,84.51 21.49,35.95 32.23,76.51 32.23,121.67 0,45.16 -10.74,85.72 -32.23,121.67 -21.49,35.95 -51.08,64.12 -88.79,84.51 -37.7,20.38 -80.02,30.58 -126.93,30.58zm0 -74.97c30.69,0 58.31,-6.91 82.86,-20.72 24.55,-13.81 43.85,-33.11 57.88,-57.88 14.03,-24.78 21.04,-52.51 21.04,-83.2 0,-30.7 -7.01,-58.43 -21.04,-83.2 -14.03,-24.78 -33.32,-44.06 -57.88,-57.88 -24.55,-13.81 -52.18,-20.72 -82.86,-20.72 -30.7,0 -58.32,6.91 -82.87,20.72 -24.55,13.81 -43.85,33.1 -57.88,57.88 -14.03,24.77 -21.04,52.5 -21.04,83.2 0,30.69 7.01,58.42 21.04,83.2 14.03,24.77 33.32,44.06 57.88,57.88 24.55,13.81 52.18,20.72 82.87,20.72zm685.3 68.4l-94.05 -134.83c-3.95,0.44 -9.87,0.66 -17.76,0.66l-103.92 0 0 134.17 -85.49 0 0 -460.38 189.41 0c39.9,0 74.65,6.57 104.24,19.73 29.6,13.15 52.28,32 68.07,56.56 15.79,24.55 23.67,53.71 23.67,87.47 0,34.64 -8.44,64.46 -25.31,89.45 -16.88,24.99 -41.11,43.62 -72.68,55.9l105.88 151.27 -92.07 0zm-1.98 -296.62c0,-29.37 -9.64,-51.96 -28.94,-67.74 -19.3,-15.79 -47.57,-23.68 -84.84,-23.68l-99.97 0 0 183.5 99.97 0c37.27,0 65.54,-8 84.84,-24.01 19.3,-16.01 28.94,-38.69 28.94,-68.07zm584.68 224.27l0 72.35 -392.63 0 0 -57.22 270.96 -330.81 -266.36 0 0 -72.34 379.48 0 0 57.21 -270.96 330.81 279.51 0zm321.61 78.92c-63.58,0 -113.12,-17.86 -148.63,-53.6 -35.52,-35.74 -53.27,-86.92 -53.27,-153.57l0 -259.78 85.49 0 0 256.49c0,90.32 39.03,135.49 117.08,135.49 77.61,0 116.4,-45.17 116.4,-135.49l0 -256.49 84.19 0 0 259.78c0,66.65 -17.65,117.84 -52.95,153.57 -35.29,35.74 -84.73,53.6 -148.31,53.6zm558.37 -169.02l0 162.45 -85.49 0 0 -161.14 -180.87 -299.24 91.42 0 134.83 224.27 136.13 -224.27 84.19 0 -180.21 297.92zm274.91 -297.92l85.5 0 0 460.38 -85.5 0 0 -460.38zm664.26 0l0 460.38 -70.37 0 -253.86 -311.75 0 311.75 -84.85 0 0 -460.38 70.37 0 253.86 311.74 0 -311.74 84.85 0zm483.39 224.92l80.9 0 0 183.5c-23.67,18.85 -51.3,33.32 -82.86,43.4 -31.58,10.09 -64.02,15.13 -97.35,15.13 -46.91,0 -89.22,-10.2 -126.93,-30.58 -37.71,-20.39 -67.3,-48.56 -88.79,-84.51 -21.48,-35.95 -32.23,-76.51 -32.23,-121.67 0,-45.16 10.75,-85.72 32.23,-121.67 21.49,-35.96 51.19,-64.13 89.12,-84.51 37.93,-20.39 80.57,-30.59 127.92,-30.59 38.58,0 73.65,6.36 105.23,19.08 31.57,12.72 58.09,31.35 79.57,55.9l-53.92 52.61c-35.08,-35.07 -77.39,-52.61 -126.94,-52.61 -32.45,0 -61.27,6.8 -86.49,20.38 -25.21,13.59 -44.94,32.67 -59.19,57.22 -14.25,24.55 -21.37,52.61 -21.37,84.19 0,30.69 7.12,58.31 21.37,82.86 14.25,24.56 33.98,43.85 59.19,57.88 25.21,14.03 53.83,21.05 85.83,21.05 35.96,0 67.53,-7.89 94.71,-23.68l0 -143.38zm238.73 -224.92l85.5 0 0 460.38 -85.5 0 0 -460.38zm612.96 388.03l0 72.35 -392.63 0 0 -57.22 270.96 -330.81 -266.36 0 0 -72.34 379.48 0 0 57.21 -270.96 330.81 279.51 0z"/>
    <path class="fil2" d="M9899.73 3097.38c-35.52,0 -69.82,-5.04 -102.93,-15.13 -33.11,-10.08 -59.3,-23.45 -78.59,-40.11l29.6 -66.43c18.85,14.91 41.98,27.07 69.39,36.51 27.4,9.43 54.91,14.14 82.54,14.14 34.19,0 59.73,-5.48 76.62,-16.44 16.88,-10.97 25.32,-25.43 25.32,-43.41 0,-13.15 -4.71,-24 -14.14,-32.55 -9.43,-8.55 -21.38,-15.23 -35.84,-20.06 -14.47,-4.82 -34.2,-10.3 -59.19,-16.44 -35.08,-8.34 -63.47,-16.67 -85.17,-25 -21.71,-8.33 -40.34,-21.37 -55.9,-39.13 -15.57,-17.75 -23.35,-41.76 -23.35,-72.01 0,-25.43 6.91,-48.56 20.72,-69.39 13.81,-20.83 34.63,-37.38 62.47,-49.66 27.84,-12.27 61.94,-18.42 102.28,-18.42 28.06,0 55.68,3.51 82.86,10.52 27.19,7.01 50.64,17.1 70.37,30.25l-26.96 66.43c-20.16,-11.84 -41.22,-20.83 -63.14,-26.97 -21.92,-6.14 -43.18,-9.2 -63.79,-9.2 -33.76,0 -58.86,5.7 -75.3,17.09 -16.44,11.4 -24.66,26.53 -24.66,45.39 0,13.15 4.71,23.89 14.14,32.22 9.43,8.34 21.38,14.91 35.84,19.73 14.47,4.83 34.2,10.3 59.19,16.45 34.2,7.88 62.26,16.11 84.19,24.66 21.92,8.55 40.67,21.6 56.23,39.13 15.57,17.54 23.36,41.21 23.36,71.03 0,25.43 -6.91,48.45 -20.72,69.06 -13.81,20.61 -34.75,37.05 -62.81,49.32 -28.07,12.28 -62.26,18.42 -102.6,18.42zm560.47 -113.11l-230.19 0 -45.38 106.54 -88.13 0 207.17 -460.38 84.19 0 207.82 460.38 -89.44 0 -46.04 -106.54zm-28.28 -67.08l-86.81 -201.25 -86.16 201.25 172.98 0zm514.43 173.63l-94.05 -134.83c-3.94,0.44 -9.87,0.66 -17.75,0.66l-103.92 0 0 134.17 -85.5 0 0 -460.38 189.42 0c39.89,0 74.64,6.58 104.24,19.73 29.59,13.15 52.28,32.01 68.07,56.56 15.78,24.55 23.67,53.71 23.67,87.47 0,34.64 -8.44,64.46 -25.32,89.45 -16.87,24.99 -41.1,43.62 -72.68,55.9l105.89 151.27 -92.08 0zm-1.97 -296.62c0,-29.37 -9.65,-51.96 -28.94,-67.74 -19.3,-15.79 -47.57,-23.68 -84.85,-23.68l-99.96 0 0 183.5 99.96 0c37.28,0 65.55,-8 84.85,-24.01 19.29,-16.01 28.94,-38.69 28.94,-68.07zm172.44 -163.76l85.5 0 0 460.38 -85.5 0 0 -460.38zm699.37 220.98c25.43,8.33 45.61,22.25 60.51,41.76 14.9,19.51 22.36,43.74 22.36,72.68 0,39.89 -15.34,70.7 -46.04,92.41 -30.69,21.7 -75.41,32.55 -134.17,32.55l-228.87 0 0 -460.38 215.72 0c54.37,0 96.24,10.63 125.61,31.89 29.38,21.27 44.06,50.54 44.06,87.8 0,22.8 -5.26,42.97 -15.78,60.51 -10.52,17.54 -25,31.13 -43.41,40.77zm-240.71 -153.9l0 126.93 121.02 0c29.82,0 52.73,-5.36 68.72,-16.1 16.01,-10.75 24.01,-26.42 24.01,-47.03 0,-21.04 -8,-36.94 -24.01,-47.68 -16,-10.74 -38.91,-16.11 -68.72,-16.11l-121.02 0zm138.12 326.21c66.2,0 99.31,-22.14 99.31,-66.43 0,-44.28 -33.11,-66.42 -99.31,-66.42l-138.12 0 0 132.85 138.12 0zm267.8 -393.29l85.5 0 0 460.38 -85.5 0 0 -460.38zm558.5 388.03l0 72.35 -392.63 0 0 -57.22 270.96 -330.81 -266.36 0 0 -72.34 379.47 0 0 57.21 -270.96 330.81 279.52 0zm567.84 -167.05c25.43,8.33 45.6,22.25 60.5,41.76 14.91,19.51 22.36,43.74 22.36,72.68 0,39.89 -15.34,70.7 -46.03,92.41 -30.7,21.7 -75.42,32.55 -134.17,32.55l-228.87 0 0 -460.38 215.72 0c54.37,0 96.24,10.63 125.62,31.89 29.37,21.27 44.06,50.54 44.06,87.8 0,22.8 -5.27,42.97 -15.79,60.51 -10.52,17.54 -24.99,31.13 -43.4,40.77zm-240.71 -153.9l0 126.93 121.01 0c29.82,0 52.73,-5.36 68.73,-16.1 16.01,-10.75 24,-26.42 24,-47.03 0,-21.04 -7.99,-36.94 -24,-47.68 -16.01,-10.74 -38.92,-16.11 -68.73,-16.11l-121.01 0zm138.11 326.21c66.2,0 99.31,-22.14 99.31,-66.43 0,-44.28 -33.11,-66.42 -99.31,-66.42l-138.11 0 0 132.85 138.11 0zm267.81 -393.29l85.5 0 0 460.38 -85.5 0 0 -460.38zm200.72 0l85.5 0 0 388.03 240.71 0 0 72.35 -326.21 0 0 -460.38zm686.74 353.83l-230.18 0 -45.39 106.54 -88.13 0 207.17 -460.38 84.19 0 207.83 460.38 -89.45 0 -46.04 -106.54zm-28.28 -67.08l-86.81 -201.25 -86.15 201.25 172.97 0zm622.3 -286.75l0 460.38 -70.37 0 -253.86 -311.75 0 311.75 -84.85 0 0 -460.38 70.37 0 253.87 311.74 0 -311.74 84.84 0z"/>
   </g>
   <g>
    <path class="fil3" d="M7478.68 141.85c-178.11,19.69 -421.79,230.56 -567.83,329.11l-795.53 555.15c-189.81,137.92 -395.8,225.97 -445.16,450.19 -33.04,150.03 15.6,249.83 58.78,376.72 152.33,447.6 309.83,893.64 454.96,1343.33 80.46,249.3 183.17,406.48 491.39,406.06 150.99,-0.2 1692.03,9.15 1796.92,-3.81 295.99,-36.57 354.23,-282.13 421.92,-481.11 152.29,-447.67 309.55,-895.1 454.53,-1343.75 94.19,-291.49 31.82,-432.63 -204.42,-602.5l-532.44 -370.81c-166.48,-109.78 -360.33,-257.77 -527.1,-367.99 -216.69,-143.22 -379.29,-315.66 -606.03,-290.59z"/>
    <g style="clip-path:url(#id0)">
     <g>
      <path id="1" class="fil4" d="M7050.42 2379.96c-11.72,17.66 -113.48,106.78 -134.51,122.55 -184.19,138.13 -399.68,353.09 -580.4,513.76 -81.99,73.44 -166.71,154.01 -250.41,224.16 -18.47,15.43 -120.79,101.56 -122.24,115.04 -1.5,13.92 196.5,220.24 231.45,224.85l121.79 -135.26c85.77,-114.39 254.57,-284.37 360.38,-410.79l243.82 -270.29c33.83,-37.82 213.93,-264.38 242.16,-271.96 -61.51,93.84 -136.21,217.9 -202.45,305.08 -171.07,225.17 -340.42,519.28 -502.85,762.67 -15.72,23.47 -94.86,143.47 -98.84,158.22 43.18,28.25 89.89,56.68 136.23,81.28 199.15,105.72 95.99,155.43 308.75,-242.69 112.75,-210.97 215.5,-438.26 322.76,-652.75 21.69,-43.85 145.46,-297.48 163.42,-321.34 -11.71,47.67 -35.13,117.94 -52.66,168.45 -94.22,282.02 -108.52,337.18 -207.68,624.49l-165.98 498.06c-28.31,98.96 -57.08,81.59 45.27,111.69 63.5,18.68 183.03,57.21 240.83,62.36 32.3,-135.34 87.94,-402.67 112.25,-511.54l110.38 -551.12c13.68,-76.52 58.85,-321.25 72.78,-364.05l-48.86 816.41c-14.98,167.58 -25.24,461.02 -35.63,643.26l329.55 0c0,-67.22 -13.58,-185.52 -13.12,-263.7 -25.95,-385.37 -76.15,-826.41 -76.15,-1205.56 10.86,24.61 115.64,556.39 132.59,641.6 19.45,102.95 48.05,210.05 63.7,311.99l62.66 306.45c9.28,47.6 22.2,135.7 41.25,176.26 35.91,-3.19 114.96,-27.58 152.35,-38.8l157.44 -40.29c0.05,-44.51 -20.25,-91.99 -36.76,-134.61l-100.19 -301.88c-46.34,-144.82 -152.7,-460.12 -200.81,-604.61 -36.87,-110.38 -91.61,-241.83 -117.04,-349.66 20.71,14.93 137.65,275.78 164.54,323.21l406.19 813.2c103.69,191.3 37.36,197.61 228.94,85.09 33.46,-19.65 119.51,-62.44 136.29,-87.81l-595.84 -906.97c-32.02,-47.7 -192.99,-273.51 -201.71,-305.82 17.62,6.55 352.86,389.94 420.07,469.75 110.29,130.99 332.25,365.71 422.46,480.54 9.29,11.83 112.17,130.69 126.39,130.67 24.15,-6.54 216.63,-199.02 224.85,-224.85 -77.5,-70.08 -156.26,-145.39 -235.61,-212.59l-643.29 -576.09c-41.59,-39.34 -187.59,-153.19 -209.41,-186.08l1138.97 752.72c26.67,17.78 55.61,32.18 87.01,44.82 30.75,-42.97 156.69,-252.7 156.93,-275.58l-639.14 -323.19c-108.17,-52.99 -212.42,-107.69 -319.72,-161.44 -42.83,-21.46 -304.95,-143.48 -318.58,-162.57l1015.16 336.04c81.08,23.3 278.18,110.8 342.64,112.17 19.29,-29.26 85.66,-271.17 85.69,-309.79 -99.57,-50.87 -554.3,-115.66 -694.77,-148.92 -64.52,-13.09 -683.46,-130.82 -702.58,-147.69 164.56,0 359.45,20.04 527.35,32.91 238.54,18.59 477.07,21.1 715.7,42.29l180.66 10.49 0 -336.15 -211.11 12.99c-212.67,8.24 -426.5,26.89 -639.37,39.53 -189.19,8.16 -398.43,38.94 -584.32,33.77 57.44,-11.93 436.28,-85.45 530.33,-107.54 174.78,-36.04 357.37,-67.88 530.25,-109.1 36.72,-8.75 319.1,-60.75 347.86,-80.57 -0.04,-40.35 -63.87,-276.69 -85.69,-309.79 -82.83,19.73 -411.28,133.54 -516.64,168.85 -232.5,78.92 -610.03,233.99 -831.16,283.72l1106.13 -569c47.37,-23.59 120.93,-54 162.57,-81.3 -7.87,-32.49 -58.55,-106.26 -76.87,-140.64 -18.36,-34.44 -59.45,-117.37 -87.9,-136.2 -78.59,18.89 -719.02,479.59 -912.28,597.12 -55.03,33.46 -270.22,190.47 -307.11,200.42 18.81,-28.35 226.18,-198.69 271.79,-242.32l443.67 -393.43c81.91,-68.57 158.57,-147.23 243.27,-218.12 28.04,-23.44 121.04,-101.04 129.4,-128.79 -44.08,-58.09 -174.47,-164.91 -227.21,-217.45 -54.13,58.95 -76.02,83.79 -171.83,188.66 -91.63,109.42 -193.01,217.69 -288.24,324.75 -87.03,100.13 -191.7,199.43 -269.03,304.42 -51.53,59.25 -199.08,247.12 -243.87,276.83 10.39,-38.53 167.04,-257.16 200.37,-307.15 67.43,-101.14 136.4,-205.44 200.28,-307.25 79.49,-126.68 235.37,-343.06 304.39,-460.2 25.22,-42.8 77.44,-121.77 96.69,-156.76 -44.43,-25.64 -95.29,-57.65 -138.76,-84.14 -31.26,-19.05 -112.25,-68.11 -142.26,-75.25 -21.9,33.2 -64.61,123.72 -82.35,161.53 -76.93,163.91 -167.68,324.28 -244,487.63 -31.69,67.82 -271.92,561.87 -321.4,638.52 26.46,-112.16 76.06,-228.83 109.42,-329.19 46.34,-137.72 81.15,-242.6 115.64,-346.35l170.22 -521.86c15.9,-43.9 54.67,-133.74 54.72,-175.97 -47.02,-21.49 -170.27,-50.65 -230.53,-66.08 -43.98,-11.24 -81.43,-36.19 -92.25,20.13l-89.87 437.43c-36.07,161.48 -65.42,326.45 -97.49,489.13 -28.86,139.56 -55.22,310.03 -96.26,444.23 0,-121 28.28,-342.49 30.89,-483.84l28.44 -498.25c11.95,-169.52 26.35,-307.29 26.35,-454.8l-329.55 0c0.02,59.3 6.71,121.6 6.46,184.67l19.74 309.82c7.37,195.14 13.12,286.23 28.31,481.88 9.47,114.67 29.72,342.37 25.18,457.22 -15.29,-70.39 -54.06,-257.16 -67.14,-338.82 -13.58,-84.85 -37.58,-175.76 -56.1,-260.28 -52.67,-234.53 -96.17,-481.56 -144.92,-718.54 -18.01,-102.27 -9.24,-93.82 -101.64,-69.91 -71.44,18.49 -164.32,35.72 -230.61,66.01 0.07,42.86 368.26,1134.37 395.54,1206.14 2.65,6.97 34.29,113.29 43.72,160.62 -26.43,-34.38 -94.1,-176.87 -110.71,-215.61 -79.07,-162.78 -120.17,-253.31 -201.09,-415.14 -108.6,-217.17 -214.31,-435.53 -325.18,-650.33 -36.99,8.8 -237.92,128.43 -283.42,158.19 23.91,50.39 423.02,657.47 498.21,767.31 48.81,71.31 239.22,365.59 285.55,438.28 -58.25,-63.55 -195.79,-212.64 -220.81,-245.96l-634.97 -716.23c-115.91,-133.62 -73.9,-140.29 -216.33,2.12 -143.58,143.58 -133.45,99.3 -6.34,213.96 250.9,223.67 502.5,446.57 752.49,671.22 47.95,40.13 202.05,171.13 218.11,195.33 -37.97,-10.25 -495.17,-331.73 -592.35,-387.94l-305.01 -202.52c-49.76,-33.18 -273.88,-193.98 -312.24,-197.24 -1.04,1.18 -3.36,4.55 -8.6,14.15 -6.74,16.29 -128.72,206.62 -149.78,264.83 216.65,111.06 428.63,218.03 643.73,325.17 190.64,95.31 450.61,211.17 632.26,317.79l-666.9 -217.23c-116.46,-33.29 -224.76,-79.33 -341.28,-113.52 -115.91,-34.01 -228.47,-86.28 -346.9,-114.49 -22.98,34.87 -85.78,270.72 -85.69,316.38l435.49 91.8c175.45,35.49 346.81,70.64 525.47,107.3 159.1,32.35 268.53,50.02 447.18,91.52 -169.96,3.45 -528.92,-28.46 -709.46,-40.16 -197.95,-9.4 -440.89,-40.94 -632.72,-39.59l-92.33 -6.54 0 336.15c38.62,0.05 276.44,-11.63 311.93,-17.69 157.58,-10.54 220.19,-14.71 393.96,-27.82l533.88 -32.96c43.45,-5.07 137.68,-7.21 183.94,-7.21 -30.35,12.9 -126.42,28.09 -166.06,38.27 -408.23,76.83 -817.63,167.37 -1224.7,251.74 -13.01,28.24 58.68,293.19 79.13,316.42 35.05,-2.97 135.34,-41.86 175.41,-55.3 288,-96.54 577.97,-186.55 864.02,-289.45l344.72 -116.68c-11.54,16.15 -583.66,296.66 -651.38,330.72 -109.24,54.96 -217.83,111.54 -328.81,165.55 -55.38,26.94 -296.43,137.17 -324.88,169.46 5.38,19.68 150.91,266.95 164.77,276.83 78.36,-40.17 152.76,-104.44 226.87,-148.83 176.58,-105.76 358.76,-236.73 532.44,-350.78 83.71,-55.81 415.71,-292.55 460.08,-304.52z"/>
     </g>
    </g>
    <path class="fil5 str0" d="M7478.68 141.85c-178.11,19.69 -421.79,230.56 -567.83,329.11l-795.53 555.15c-189.81,137.92 -395.8,225.97 -445.16,450.19 -33.04,150.03 15.6,249.83 58.78,376.72 152.33,447.6 309.83,893.64 454.96,1343.33 80.46,249.3 183.17,406.48 491.39,406.06 150.99,-0.2 1692.03,9.15 1796.92,-3.81 295.99,-36.57 354.23,-282.13 421.92,-481.11 152.29,-447.67 309.55,-895.1 454.53,-1343.75 94.19,-291.49 31.82,-432.63 -204.42,-602.5l-532.44 -370.81c-166.48,-109.78 -360.33,-257.77 -527.1,-367.99 -216.69,-143.22 -379.29,-315.66 -606.03,-290.59z"/>
    <g>
     <g>
      <path class="fil6" d="M6847.5 3168.23c16.82,-7.73 148.53,-27.22 271.71,-146.93l213.05 -201.24c34.79,-42.71 115.39,-167.3 171.29,-180.33 17.62,75.3 92.39,236.63 92.39,431.67 46.31,-46.8 71.47,-110.45 93.96,-171.71 43.08,-182.31 46.29,-282.25 30.53,-479.09l-15.02 -489.16c75.12,-22.12 171,-68.53 249.12,-123.41 69.32,-48.72 123.17,-91.36 170.9,-178.15 29.82,-49.95 42.59,-94.03 79.12,-289.94 0.59,-5.77 -28.11,34.33 -59.11,74.82 -212.77,269.69 -513.55,359.63 -776.11,200.97 -183.79,-111.07 -358.01,-432.12 -460.26,-621.19 -27.81,-44.97 -40.99,-66.53 -63.64,-109.1 0,129.93 5.41,272.18 32.77,376.69 23.48,145.85 89.39,261.62 157.9,344.74 126.65,153.64 267.12,226.58 308.42,429.42 18.29,185.76 -20.84,339.98 -97.28,507.14 -99.92,211.85 -262.06,435.23 -399.74,624.81z"/>
     </g>
     <g>
      <path class="fil1" d="M7004.17 3107.1c82.91,-40.3 215.83,-144.29 263.53,-191.72l159.68 -174.17c29.95,-36.77 80.02,-127.31 128.14,-138.52 65.79,124.32 40.41,300 40.41,468.71 19.43,-12.17 17.18,-11.68 23.35,-17.06 42.35,-44.62 77,-146.17 91.49,-207.5 37.09,-156.97 35.68,-397.47 22.11,-566.95l-31.89 -404.5c74.91,-6.23 230.58,-96.55 292.97,-159.56 99.72,-100.74 114.71,-143.28 151.48,-301.07 -18.59,20.2 -36.1,39.44 -62.46,66.84 -190.74,198.24 -459.72,252.35 -685.78,115.75 -158.23,-95.63 -295.05,-270.32 -383.08,-433.1 -17.68,-32.71 -97.59,-159.64 -105.05,-169.7 0,111.87 24.86,241.44 48.4,331.42 26.58,101.55 72.21,185.12 131.2,256.69 109.03,132.28 283.18,297.26 328.66,439.03 34.38,107.17 28.94,217.45 -2.44,327.24 -44.45,155.54 -134.02,322.36 -222.91,455.89 -13.8,20.73 -23.74,35.04 -37.91,59.06 -33.23,56.31 -128.07,203.94 -149.9,243.24z"/>
      <ellipse class="fil1" cx="7549.98" cy="1386.97" rx="188.92" ry="188.93"/>
     </g>
    </g>
   </g>
   <path class="fil7" d="M10590.21 1547.35l245.74 0 0 354.83c-49.55,34.36 -107.09,60.74 -172.62,79.12 -65.52,18.39 -129.86,27.57 -192.99,27.57 -89.51,0 -169.82,-18.57 -240.95,-55.74 -71.12,-37.16 -126.87,-89.11 -167.23,-155.83 -40.35,-66.74 -60.53,-142.46 -60.53,-227.17 0,-84.71 20.18,-160.44 60.53,-227.17 40.37,-66.73 96.7,-118.68 169.03,-155.83 72.32,-37.17 154.04,-55.74 245.14,-55.74 82.32,0 156.04,13.78 221.18,41.36 65.13,27.56 119.27,67.73 162.42,120.47l-181.01 159.43c-52.75,-61.54 -115.48,-92.31 -188.21,-92.31 -62.33,0 -111.88,18.78 -148.64,56.34 -36.76,37.56 -55.14,88.71 -55.14,153.44 0,63.13 18.18,113.88 54.55,152.24 36.36,38.36 84.91,57.54 145.64,57.54 35.96,0 70.33,-6.79 103.1,-20.37l0 -212.19zm762.41 231.36l-76.73 0 0 210.98 -282.9 0 0 -839.13 403.97 0c77.52,0 145.05,12.78 202.58,38.35 57.55,25.58 101.9,62.34 133.07,110.29 31.16,47.96 46.75,103.9 46.75,167.83 0,59.94 -13.59,112.28 -40.76,157.04 -27.17,44.76 -66.33,80.31 -117.48,106.69l176.23 258.93 -302.08 0 -142.65 -210.98zm141.45 -311.68c0,-31.16 -9.58,-55.35 -28.77,-72.53 -19.19,-17.18 -47.95,-25.77 -86.31,-25.77l-103.1 0 0 196.6 103.1 0c38.36,0 67.12,-8.6 86.31,-25.78 19.19,-17.18 28.77,-41.36 28.77,-72.53zm999.76 376.41l-318.87 0 -56.34 146.25 -287.7 0 366.82 -839.13 278.12 0 366.82 839.13 -292.5 0 -56.33 -146.25zm-77.92 -203.79l-81.52 -210.98 -81.51 210.98 163.03 0zm1335.41 -489.09l0 839.13 -232.55 0 -318.87 -381.2 0 381.2 -275.71 0 0 -839.13 232.56 0 318.87 381.2 0 -381.2 275.71 0zm172.63 0l413.57 0c93.5,0 176.02,16.98 247.54,50.94 71.53,33.98 127.07,82.52 166.63,145.66 39.56,63.13 59.34,137.46 59.34,222.97 0,85.51 -19.78,159.83 -59.34,222.97 -39.56,63.13 -95.1,111.68 -166.63,145.65 -71.52,33.97 -154.04,50.95 -247.54,50.95l-413.57 0 0 -839.13zm401.58 618.55c60.73,0 109.28,-17.38 145.65,-52.15 36.36,-34.77 54.54,-83.71 54.54,-146.84 0,-63.13 -18.18,-112.09 -54.54,-146.85 -36.37,-34.76 -84.92,-52.15 -145.65,-52.15l-118.68 0 0 397.99 118.68 0z"/>
   <g>
    <path class="fil2" d="M987.69 1976.85c-95.36,0 -181.02,-18.78 -256.97,-56.34 -75.95,-37.57 -135.44,-89.72 -178.48,-156.46 -43.05,-66.74 -64.56,-142.06 -64.56,-225.98 0,-83.93 21.52,-159.25 64.56,-225.99 43.04,-66.74 102.53,-118.88 178.48,-156.45 75.96,-37.57 161.61,-56.35 256.97,-56.35 95.36,0 181.02,18.78 256.96,56.35 75.95,37.56 135.44,89.71 178.49,156.45 43.04,66.74 64.55,142.06 64.55,225.99 0,83.92 -21.52,159.24 -64.55,225.98 -43.05,66.74 -102.54,118.88 -178.49,156.46 -75.95,37.56 -161.6,56.34 -256.96,56.34zm0 -228.98c37.13,0 70.67,-8.6 100.64,-25.78 29.96,-17.18 53.8,-41.56 71.52,-73.13 17.71,-31.57 26.58,-68.54 26.58,-110.89 0,-42.36 -8.86,-79.32 -26.58,-110.9 -17.72,-31.57 -41.56,-55.95 -71.52,-73.13 -29.97,-17.18 -63.51,-25.78 -100.64,-25.78 -37.14,0 -70.68,8.6 -100.64,25.78 -29.97,17.18 -53.81,41.56 -71.52,73.13 -17.72,31.58 -26.59,68.54 -26.59,110.9 0,42.35 8.86,79.32 26.59,110.89 17.71,31.57 41.55,55.95 71.52,73.13 29.96,17.18 63.5,25.78 100.64,25.78zm1216.48 -1.2l-81.01 0 0 210.99 -298.74 0 0 -839.2 426.59 0c81.86,0 153.18,12.78 213.94,38.36 60.76,25.58 107.59,62.34 140.51,110.3 32.91,47.95 49.36,103.9 49.36,167.84 0,59.94 -14.35,112.29 -43.04,157.05 -28.69,44.76 -70.04,80.32 -124.05,106.7l186.08 258.95 -318.99 0 -150.64 -210.99zm149.37 -311.71c0,-31.17 -10.13,-55.35 -30.38,-72.53 -20.25,-17.19 -50.63,-25.78 -91.14,-25.78l-108.87 0 0 196.61 108.87 0c40.51,0 70.89,-8.6 91.14,-25.78 20.25,-17.18 30.38,-41.36 30.38,-72.53zm1424.07 303.31l0 219.39 -813.94 0 0 -173.83 405.07 -445.97 -392.41 0 0 -219.39 781.03 0 0 173.83 -405.07 445.97 425.32 0zm739.25 238.58c-135.87,0 -241.78,-34.77 -317.72,-104.3 -75.95,-69.53 -113.92,-167.04 -113.92,-292.52l0 -461.56 298.73 0 0 453.17c0,61.54 11.61,106.31 34.82,134.28 23.21,27.97 56.75,41.96 100.64,41.96 43.88,0 77.43,-13.99 100.64,-41.96 23.21,-27.97 34.81,-72.73 34.81,-134.28l0 -453.17 293.68 0 0 461.56c0,125.48 -37.98,222.99 -113.92,292.52 -75.96,69.53 -181.87,104.3 -317.73,104.3z"/>
   </g>
  </g>
 </g>
</svg>
